<?xml version="1.0" encoding="UTF-8" standalone="no"?>
<svg
   xmlns:dc="http://purl.org/dc/elements/1.1/"
   xmlns:cc="http://creativecommons.org/ns#"
   xmlns:rdf="http://www.w3.org/1999/02/22-rdf-syntax-ns#"
   xmlns:svg="http://www.w3.org/2000/svg"
   xmlns="http://www.w3.org/2000/svg"
   xmlns:sodipodi="http://sodipodi.sourceforge.net/DTD/sodipodi-0.dtd"
   xmlns:inkscape="http://www.inkscape.org/namespaces/inkscape"
   sodipodi:docname="clock - コピー.svg"
   inkscape:version="1.0 (4035a4fb49, 2020-05-01)"
   id="svg8"
   version="1.1"
   viewBox="0 0 26.458333 26.458333"
   height="100"
   width="100">
  <defs
     id="defs2" />
  <sodipodi:namedview
     inkscape:window-maximized="0"
     inkscape:window-y="46"
     inkscape:window-x="228"
     inkscape:window-height="1034"
     inkscape:window-width="1661"
     showgrid="false"
     inkscape:document-rotation="0"
     inkscape:current-layer="layer1"
     inkscape:document-units="mm"
     inkscape:cy="46.444812"
     inkscape:cx="32.220645"
     inkscape:zoom="3.959798"
     inkscape:pageshadow="2"
     inkscape:pageopacity="0.0"
     borderopacity="1.0"
     bordercolor="#666666"
     pagecolor="#ffffff"
     id="base"
     units="px" />
  <metadata
     id="metadata5">
    <rdf:RDF>
      <cc:Work
         rdf:about="">
        <dc:format>image/svg+xml</dc:format>
        <dc:type
           rdf:resource="http://purl.org/dc/dcmitype/StillImage" />
        <dc:title />
      </cc:Work>
    </rdf:RDF>
  </metadata>
  <g
     id="layer1"
     inkscape:groupmode="layer"
     inkscape:label="Layer 1">
    <ellipse
       ry="11.516136"
       rx="12.010554"
       cy="13.385056"
       cx="13.467103"
       id="path833"
       style="fill:none;stroke:#fafafa;stroke-width:1.28948;stroke-linecap:round;stroke-linejoin:round;stroke-miterlimit:4;stroke-dasharray:none;stroke-opacity:1;paint-order:markers fill stroke" />
    <g
       transform="translate(0.7349912,0.40090429)"
       style="font-size:19.7556px;line-height:1.25;font-family:Amerika;-inkscape-font-specification:Amerika;fill:#fcfcfc;fill-opacity:1;stroke-width:0.264583"
       id="text834"
       aria-label="i">
      <path
         id="path836"
         style="font-size:19.7556px;fill:#fcfcfc;fill-opacity:1;stroke-width:0.264583"
         d="m 13.863364,14.551399 q 0,-0.908758 0.01976,-1.501426 0.03951,-0.612423 0.197556,-0.968024 0.1778,-0.375356 0.533401,-0.533401 0.375357,-0.158045 1.027291,-0.158045 V 10.501501 H 9.7937109 v 0.889002 h 0.197556 q 0.5926681,0 0.9087571,0.158045 0.31609,0.158045 0.474135,0.533401 0.158045,0.355601 0.1778,0.968024 0.03951,0.592668 0.03951,1.501426 v 1.778004 q 0,0.908758 -0.03951,1.521181 -0.01975,0.592668 -0.197556,0.968025 -0.158045,0.3556 -0.533401,0.513645 -0.355601,0.158045 -1.0075355,0.158045 v 0.889002 h 5.8476575 v -0.889002 h -0.197556 q -0.592668,0 -0.908758,-0.158045 -0.316089,-0.158045 -0.474134,-0.513645 -0.158045,-0.375357 -0.197556,-0.968025 -0.01976,-0.612423 -0.01976,-1.521181 z m -2.64725,-7.4873723 q 0,0.6124236 0.414868,1.0470468 0.434623,0.4346232 1.047046,0.4346232 0.612424,0 1.047047,-0.4346232 0.434623,-0.4346232 0.434623,-1.0470468 0,-0.6124236 -0.434623,-1.0470468 -0.434623,-0.4346232 -1.047047,-0.4346232 -0.612423,0 -1.047046,0.4346232 -0.414868,0.4346232 -0.414868,1.0470468 z" />
    </g>
  </g>
</svg>
